# xmcd
#
# Track frame offsets:
#	150
#	15959
#	32310
#	49706
#	65882
#	82825
#	99516
#	114704
#	132394
#	145829
#	163446
#	179049
#	194477
#	210397
#	226003
#	243238
#	260508
#	273489
#	288880
#
# Disc length: 4026 seconds
#
# Revision: 5
# Processed by: cddbd v1.5.1PL0 Copyright (c) Steve Scherf et al.
# Submitted via: audiograbber 1.83.01
#
DISCID=0d0fb813
DTITLE=1998-07 Country Radio - 1998-07 Country Radio
DYEAR=1998
DGENRE=Country
TTITLE0=George Strait - True
TTITLE1=Brooks and Dunn - How Long Gone
TTITLE2=Lonestar - Everything's Changed
TTITLE3=Mark Wills - Don't Laugh At Me
TTITLE4=Bryan White - Three Of Hearts
TTITLE5=Shania Twain - From This Moment On
TTITLE6=Tracy Byrd - I Wanna Feel That Way Again
TTITLE7=Sammy Kershaw - Honky Tonk America
TTITLE8=Clint Daniels - A Fool's Progress
TTITLE9=Gary Allan - No Man In His Wrong Heart
TTITLE10=Lila McCann - Yippy Ky Yay
TTITLE11=Keith Harling - Coming Back For You
TTITLE12=Jeff Carson - Shine On
TTITLE13=Sherrie Austin - Innocent Man
TTITLE14=Kevin Sharp - If She Only Knew
TTITLE15=Ken Mellons - Ladies Night
TTITLE16=Sara Evans - The Crying Game
TTITLE17=Crawford/West - The Healing End
TTITLE18=Great Divide, The - Pour Me A Vacarion
EXTD=
EXTT0=
EXTT1=
EXTT2=
EXTT3=
EXTT4=
EXTT5=
EXTT6=
EXTT7=
EXTT8=
EXTT9=
EXTT10=
EXTT11=
EXTT12=
EXTT13=
EXTT14=
EXTT15=
EXTT16=
EXTT17=
EXTT18=
PLAYORDER=
